<!-- Generated by IcoMoon.io -->
<svg version="1.1" xmlns="http://www.w3.org/2000/svg" width="1024" height="1024" viewBox="0 0 1024 1024">
<g id="icomoon-ignore">
</g>
<path d="M562.688 782.848l440.32-440.32c12.972-12.972 20.996-30.893 20.996-50.688 0-39.59-32.094-71.684-71.684-71.684-19.795 0-37.716 8.023-50.688 20.996v0l-389.632 389.581-389.581-389.632c-12.976-12.963-30.896-20.981-50.688-20.981-39.61 0-71.72 32.11-71.72 71.72 0 19.818 8.038 37.758 21.031 50.739l440.27 440.27c12.949 13.023 30.877 21.082 50.688 21.082s37.739-8.060 50.685-21.079l0.003-0.003z"></path>
</svg>
