<!-- Generated by IcoMoon.io -->
<svg version="1.1" xmlns="http://www.w3.org/2000/svg" width="973" height="1024" viewBox="0 0 973 1024">
<g id="icomoon-ignore">
</g>
<path d="M204.8 9.984l-204.8 204.8 48.282 48.282 146.534-146.534v907.469h68.25v-907.469l146.534 146.534 48.282-48.282-204.8-204.8c-13.363-13.312-34.97-13.312-48.282 0zM775.066 68.25c-56.554 0-102.4 45.846-102.4 102.4v0 102.4h204.8v-102.4c0-56.554-45.846-102.4-102.4-102.4v0zM877.466 341.35v136.499h68.25v-307.2c0-94.247-76.402-170.65-170.65-170.65s-170.65 76.402-170.65 170.65v0 307.2h68.25v-136.499h204.8zM604.416 546.15h204.8c75.382 0.043 136.475 61.162 136.475 136.55 0 40.682-17.79 77.209-46.016 102.225l-0.143 0.124c28.402 25.143 46.216 61.691 46.216 102.4 0 75.409-61.126 136.54-136.532 136.55h-204.801v-477.85zM809.216 750.95c37.707 0 68.275-30.568 68.275-68.275s-30.568-68.275-68.275-68.275v0h-136.55v136.55h136.55zM672.666 819.2h136.55c37.707 0 68.275 30.568 68.275 68.275s-30.568 68.275-68.275 68.275h-136.55v-136.55z"></path>
</svg>
