<!-- Generated by IcoMoon.io -->
<svg version="1.1" xmlns="http://www.w3.org/2000/svg" width="1024" height="1024" viewBox="0 0 1024 1024">
<g id="icomoon-ignore">
</g>
<path d="M0 512c0-282.761 229.239-512 512-512s512 229.239 512 512c0 282.761-229.239 512-512 512s-512-229.239-512-512zM512 68.267c-245.077 0-443.733 198.656-443.733 443.733s198.656 443.733 443.733 443.733 443.733-198.656 443.733-443.733-198.656-443.733-443.733-443.733zM341.333 409.6h-68.267v-68.267h68.267v68.267zM750.933 409.6h-68.267v-68.267h68.267v68.267zM259.413 689.493l20.48-27.307c116.053-154.726 348.16-154.726 464.213 0l20.48 27.307-54.613 40.96-20.48-27.307c-88.747-118.34-266.24-118.34-354.987 0l-20.48 27.307-54.613-40.96z"></path>
</svg>
