<!-- Generated by IcoMoon.io -->
<svg version="1.1" xmlns="http://www.w3.org/2000/svg" width="1182" height="1024" viewBox="0 0 1182 1024">
<g id="icomoon-ignore">
</g>
<path d="M317.873 78.769c-0.004 0-0.008 0-0.012 0-132.053 0-239.104 107.051-239.104 239.104 0 66.030 26.765 125.808 70.038 169.078l441.974 441.974 441.974-441.974c43.271-43.271 70.034-103.049 70.034-169.078 0-132.058-107.054-239.113-239.113-239.113-66.029 0-125.807 26.764-169.078 70.034l-75.973 76.012c-7.127 7.125-16.971 11.531-27.845 11.531s-20.718-4.407-27.845-11.531l-75.973-76.012c-43.269-43.266-103.042-70.026-169.066-70.026-0.004 0-0.009 0-0.013 0h0.001zM0 317.873c0.003-175.554 142.318-317.869 317.873-317.869 87.777 0 167.244 35.578 224.768 93.101l48.128 48.128 48.128-48.128c57.42-56.916 136.477-92.085 223.747-92.085 175.557 0 317.873 142.317 317.873 317.873 0 87.271-35.169 166.328-92.108 223.771l-469.796 469.835c-7.127 7.125-16.971 11.531-27.845 11.531s-20.718-4.407-27.845-11.531l-469.819-469.898c-57.515-57.514-93.093-136.965-93.105-224.726v-0.002z"></path>
</svg>
