<svg aria-hidden="true" style="position: absolute; width: 0; height: 0; overflow: hidden;" version="1.1" xmlns="http://www.w3.org/2000/svg" xmlns:xlink="http://www.w3.org/1999/xlink">
<defs>
<symbol id="icon-arrow" viewBox="0 0 32 32">
<path d="M17.584 24.464l13.76-13.76c0.405-0.405 0.656-0.965 0.656-1.584 0-1.237-1.003-2.24-2.24-2.24-0.619 0-1.179 0.251-1.584 0.656v0l-12.176 12.174-12.174-12.176c-0.405-0.405-0.966-0.656-1.584-0.656-1.238 0-2.241 1.003-2.241 2.241 0 0.619 0.251 1.18 0.657 1.586l13.758 13.758c0.405 0.407 0.965 0.659 1.584 0.659s1.179-0.252 1.584-0.659l0-0z"></path>
</symbol>
<symbol id="icon-ascending" viewBox="0 0 30 32">
<path d="M6.4 0.312l-6.4 6.4 1.509 1.509 4.579-4.579v28.358h2.133v-28.358l4.579 4.579 1.509-1.509-6.4-6.4c-0.418-0.416-1.093-0.416-1.509 0zM24.221 2.133c-1.767 0-3.2 1.433-3.2 3.2v0 3.2h6.4v-3.2c0-1.767-1.433-3.2-3.2-3.2v0zM27.421 10.667v4.266h2.133v-9.6c0-2.945-2.388-5.333-5.333-5.333s-5.333 2.388-5.333 5.333v0 9.6h2.133v-4.266h6.4zM18.888 17.067h6.4c2.356 0.001 4.265 1.911 4.265 4.267 0 1.271-0.556 2.413-1.438 3.195l-0.004 0.004c0.888 0.786 1.444 1.928 1.444 3.2 0 2.357-1.91 4.267-4.267 4.267h-6.4v-14.933zM25.288 23.467c1.178 0 2.134-0.955 2.134-2.134s-0.955-2.134-2.134-2.134v0h-4.267v4.267h4.267zM21.021 25.6h4.267c1.178 0 2.134 0.955 2.134 2.134s-0.955 2.134-2.134 2.134h-4.267v-4.267z"></path>
</symbol>
<symbol id="icon-burger" viewBox="0 0 53 32">
<path d="M53.333 3.556h-53.333v-3.556h53.333v3.556zM53.333 17.778h-53.333v-3.556h53.333v3.556zM53.333 32h-53.333v-3.556h53.333v3.556z"></path>
</symbol>
<symbol id="icon-close" viewBox="0 0 32 32">
<path d="M14.26 16l-13.899-13.899 1.74-1.742 13.899 13.899 13.899-13.899 1.74 1.742-13.899 13.899 13.899 13.899-1.74 1.74-13.899-13.899-13.899 13.899-1.74-1.742 13.899-13.898z"></path>
</symbol>
<symbol id="icon-descending" viewBox="0 0 30 32">
<path d="M6.088 28.358l-4.579-4.579-1.509 1.509 6.4 6.4c0.193 0.193 0.46 0.313 0.754 0.313s0.561-0.12 0.754-0.313l6.4-6.4-1.509-1.509-4.579 4.579v-28.358h-2.133v28.358zM24.221 2.134c-1.767 0-3.2 1.433-3.2 3.2v0 3.2h6.4v-3.2c0-1.767-1.433-3.2-3.2-3.2v0zM27.421 10.667v4.266h2.133v-9.6c0-2.945-2.388-5.333-5.333-5.333s-5.333 2.388-5.333 5.333v0 9.6h2.133v-4.266h6.4zM18.888 17.067h6.4c2.356 0.001 4.265 1.911 4.265 4.267 0 1.271-0.556 2.413-1.438 3.195l-0.004 0.004c0.888 0.786 1.444 1.928 1.444 3.2 0 2.357-1.91 4.267-4.267 4.267h-6.4v-14.933zM25.288 23.467c1.178 0 2.134-0.955 2.134-2.134s-0.955-2.134-2.134-2.134v0h-4.267v4.267h4.267zM21.021 25.6h4.267c1.178 0 2.134 0.955 2.134 2.134s-0.955 2.134-2.134 2.134h-4.267v-4.267z"></path>
</symbol>
<symbol id="icon-dislike" viewBox="0 0 32 32">
<path d="M0 16c0-8.836 7.164-16 16-16s16 7.164 16 16c0 8.836-7.164 16-16 16s-16-7.164-16-16zM16 2.133c-7.659 0-13.867 6.208-13.867 13.867s6.208 13.867 13.867 13.867 13.867-6.208 13.867-13.867-6.208-13.867-13.867-13.867zM10.667 12.8h-2.133v-2.133h2.133v2.133zM23.467 12.8h-2.133v-2.133h2.133v2.133zM8.107 21.547l0.64-0.853c3.627-4.835 10.88-4.835 14.507 0l0.64 0.853-1.707 1.28-0.64-0.853c-2.773-3.698-8.32-3.698-11.093 0l-0.64 0.853-1.707-1.28z"></path>
</symbol>
<symbol id="icon-eye" viewBox="0 0 32 32">
<path d="M16 6c-6.979 0-13.028 4.064-16 10 2.972 5.936 9.021 10 16 10s13.027-4.064 16-10c-2.972-5.936-9.021-10-16-10zM23.889 11.303c1.88 1.199 3.473 2.805 4.67 4.697-1.197 1.891-2.79 3.498-4.67 4.697-2.362 1.507-5.090 2.303-7.889 2.303s-5.527-0.796-7.889-2.303c-1.88-1.199-3.473-2.805-4.67-4.697 1.197-1.891 2.79-3.498 4.67-4.697 0.122-0.078 0.246-0.154 0.371-0.228-0.311 0.854-0.482 1.776-0.482 2.737 0 4.418 3.582 8 8 8s8-3.582 8-8c0-0.962-0.17-1.883-0.482-2.737 0.124 0.074 0.248 0.15 0.371 0.228v0zM16 13c0 1.657-1.343 3-3 3s-3-1.343-3-3 1.343-3 3-3 3 1.343 3 3z"></path>
</symbol>
<symbol id="icon-favourite" viewBox="0 0 37 32">
<path d="M9.934 2.462c-0 0-0 0-0 0-4.127 0-7.472 3.345-7.472 7.472 0 2.063 0.836 3.931 2.189 5.284l13.812 13.812 13.812-13.812c1.352-1.352 2.189-3.22 2.189-5.284 0-4.127-3.345-7.472-7.472-7.472-2.063 0-3.931 0.836-5.284 2.189l-2.374 2.375c-0.223 0.223-0.53 0.36-0.87 0.36s-0.647-0.138-0.87-0.36l-2.374-2.375c-1.352-1.352-3.22-2.188-5.283-2.188-0 0-0 0-0 0h0zM0 9.934c0-5.486 4.447-9.933 9.934-9.933 2.743 0 5.226 1.112 7.024 2.909l1.504 1.504 1.504-1.504c1.794-1.779 4.265-2.878 6.992-2.878 5.486 0 9.934 4.447 9.934 9.934 0 2.727-1.099 5.198-2.878 6.993l-14.681 14.682c-0.223 0.223-0.53 0.36-0.87 0.36s-0.647-0.138-0.87-0.36l-14.682-14.684c-1.797-1.797-2.909-4.28-2.91-7.023v-0z"></path>
</symbol>
<symbol id="icon-file-invalid" viewBox="0 0 32 32">
<path d="M0 16c0-8.837 7.163-16 16-16s16 7.163 16 16-7.163 16-16 16-16-7.163-16-16zM16 2.133c-7.659 0-13.867 6.209-13.867 13.867s6.209 13.867 13.867 13.867v0c7.659 0 13.867-6.209 13.867-13.867s-6.209-13.867-13.867-13.867v0zM14.491 16l-5.643-5.646 1.507-1.507 5.645 5.645 5.646-5.645 1.507 1.507-5.645 5.646 5.645 5.646-1.507 1.507-5.646-5.645-5.646 5.643-1.507-1.507 5.645-5.645z"></path>
</symbol>
<symbol id="icon-file-valid" viewBox="0 0 32 32">
<path d="M0 16c0-8.837 7.163-16 16-16s16 7.163 16 16-7.163 16-16 16-16-7.163-16-16zM16 2.133c-7.659 0-13.867 6.209-13.867 13.867s6.209 13.867 13.867 13.867v0c7.659 0 13.867-6.209 13.867-13.867s-6.209-13.867-13.867-13.867v0zM24.299 11.333l-9.211 11.517-7.235-6.030 1.365-1.638 5.565 4.637 7.853-9.818 1.666 1.333z"></path>
</symbol>
<symbol id="icon-filled-heart" viewBox="0 0 36 32">
<path d="M9.564 0c-0 0-0.001 0-0.001 0-5.282 0-9.564 4.282-9.564 9.564 0 2.642 1.071 5.033 2.803 6.764l14.139 14.139c0.462 0.462 1.212 0.462 1.675 0l14.139-14.139c1.731-1.731 2.801-4.122 2.801-6.764 0-5.283-4.283-9.566-9.566-9.566-2.642 0-5.033 1.071-6.764 2.802v0l-1.447 1.449-1.449-1.449c-1.731-1.731-4.122-2.802-6.763-2.802h-0z"></path>
</symbol>
<symbol id="icon-like" viewBox="0 0 32 32">
<path d="M0 16c0-8.836 7.164-16 16-16s16 7.164 16 16c0 8.836-7.164 16-16 16s-16-7.164-16-16zM16 2.133c-7.659 0-13.867 6.208-13.867 13.867s6.208 13.867 13.867 13.867 13.867-6.208 13.867-13.867-6.208-13.867-13.867-13.867zM10.667 12.8h-2.133v-2.133h2.133v2.133zM23.467 12.8h-2.133v-2.133h2.133v2.133zM9.813 17.707l0.64 0.853c2.773 3.698 8.32 3.698 11.093 0l0.64-0.853 1.707 1.28-0.64 0.853c-3.627 4.835-10.88 4.835-14.507 0l-0.64-0.853 1.707-1.28z"></path>
</symbol>
<symbol id="icon-logo" viewBox="0 0 32 32">
<path d="M10.453 16.611c0-3.4 2.756-6.156 6.156-6.156 0 0 0.001 0 0.001 0h9.233c3.4 0 6.156 2.756 6.156 6.156s-2.756 6.156-6.156 6.156h-9.233c-3.4 0-6.156-2.756-6.156-6.156v0z"></path>
<path d="M16.611 32c-3.4 0-6.156-2.756-6.156-6.156v0-9.233c0-3.4 2.756-6.156 6.156-6.156s6.156 2.756 6.156 6.156v9.233c0 3.4-2.756 6.156-6.156 6.156v0zM15.389 3.848c0 0.021 0.001 0.046 0.001 0.072 0 2.125-1.723 3.848-3.848 3.848s-3.848-1.723-3.848-3.848c0-0.025 0-0.050 0.001-0.075l-0 0.004c0.040-2.094 1.747-3.776 3.847-3.776s3.807 1.682 3.847 3.773l0 0.004zM7.695 22.315c0 0.021 0.001 0.046 0.001 0.072 0 2.125-1.723 3.848-3.848 3.848s-3.848-1.723-3.848-3.848c0-0.025 0-0.050 0.001-0.075l-0 0.004c0.040-2.094 1.747-3.776 3.847-3.776s3.807 1.682 3.847 3.773l0 0.004zM26.163 3.848c0 0.021 0.001 0.046 0.001 0.072 0 2.125-1.723 3.848-3.848 3.848s-3.848-1.723-3.848-3.848c0-0.025 0-0.050 0.001-0.075l-0 0.004c0.040-2.094 1.747-3.776 3.847-3.776s3.807 1.682 3.847 3.773l0 0.004zM7.695 11.543c0 0.021 0.001 0.046 0.001 0.072 0 2.125-1.723 3.848-3.848 3.848s-3.848-1.723-3.848-3.848c0-0.025 0-0.050 0.001-0.075l-0 0.004c0.040-2.094 1.747-3.776 3.847-3.776s3.807 1.682 3.847 3.773l0 0.004z"></path>
</symbol>
<symbol id="icon-no-image" viewBox="0 0 32 32">
<path d="M22.4 6.4c-1.767 0-3.2 1.433-3.2 3.2s1.433 3.2 3.2 3.2 3.2-1.433 3.2-3.2-1.433-3.2-3.2-3.2z"></path>
<path d="M0 3.2v25.6c0 1.767 1.433 3.2 3.2 3.2h25.6c0 0 0.001 0 0.001 0 1.212 0 2.267-0.674 2.819-1.685l-0.008 0.017c0.248-0.453 0.389-0.972 0.389-1.524 0-0.002 0-0.005 0-0.007v-25.6c0-1.767-1.433-3.2-3.2-3.2h-25.6c-1.767 0-3.2 1.433-3.2 3.2zM10.345 6.703l-0.745-0.745-7.467 7.467v-10.225c0-0.589 0.478-1.067 1.067-1.067v0h25.6c0.589 0 1.067 0.478 1.067 1.067v0 18.133h-4.891l-14.63-14.63z"></path>
</symbol>
<symbol id="icon-reload" viewBox="0 0 29 32">
<path d="M13.571 4l-2.477-2.475 1.523-1.525 5.075 5.072-5.075 5.070-1.523-1.525 2.461-2.461c-6.347 0.251-11.397 5.455-11.4 11.84v0c0.004 6.544 5.31 11.848 11.854 11.848 0.001 0 0.001 0 0.002 0h-0c0 0 0.001 0 0.002 0 6.545 0 11.851-5.304 11.854-11.848v-1.079h2.157v1.078c0 7.733-6.275 14.003-14.013 14.003-7.736 0-14.011-6.27-14.011-14.003 0-7.586 6.038-13.765 13.571-13.997z"></path>
</symbol>
<symbol id="icon-search" viewBox="0 0 32 32">
<path d="M30.978 29.147l-7.616-7.92c1.886-2.226 3.032-5.13 3.032-8.301 0-0.002 0-0.004 0-0.006v0c0-7.123-5.797-12.92-12.922-12.92-7.123 0-12.918 5.797-12.918 12.92 0 7.125 5.795 12.92 12.92 12.92 0.010 0 0.021 0 0.032 0 2.761 0 5.318-0.876 7.408-2.364l-0.039 0.026 7.674 7.981c0.32 0.333 0.752 0.517 1.216 0.517 0.931-0.001 1.684-0.756 1.684-1.686 0-0.453-0.178-0.864-0.469-1.167l0.001 0.001zM13.474 3.371c5.271 0.006 9.542 4.278 9.549 9.548v0.001c-0.005 5.272-4.277 9.544-9.548 9.55h-0.001c-5.272-0.005-9.545-4.278-9.55-9.55v-0.001c0.006-5.272 4.279-9.543 9.55-9.549h0.001z"></path>
</symbol>
<symbol id="icon-sleeping-eye" viewBox="0 0 57 32">
<path d="M9.468 11.058c4.036 4.487 10.194 8.853 18.976 8.853 8.775 0 14.937-4.366 18.976-8.853 2.126-2.371 3.959-5.071 5.401-7.998l0.093-0.208c0.058-0.11 0.161-0.333 0.259-0.559l0.047-0.12 0.011-0.028v-0.004l1.76 0.704c1.764 0.704 1.76 0.704 1.76 0.708v0.007l-0.007 0.014-0.021 0.053-0.078 0.185c-0.538 1.202-1.034 2.163-1.571 3.097l0.089-0.167c-1.483 2.596-3.112 4.841-4.953 6.892l0.032-0.036c-0.734 0.813-1.475 1.563-2.249 2.279l-0.023 0.021 6.471 6.468-2.684 2.681-6.731-6.731c-4.079 3.027-9.124 4.973-14.603 5.326l-0.081 0.004v7.644h-3.794v-7.644c-5.561-0.358-10.606-2.305-14.759-5.386l0.075 0.053-6.724 6.738-2.688-2.684 6.471-6.471c-0.797-0.736-1.538-1.485-2.245-2.267l-0.027-0.030c-2.365-2.636-4.402-5.639-6.002-8.896l-0.103-0.231c-0.072-0.136-0.199-0.414-0.32-0.694l-0.057-0.149-0.021-0.053-0.007-0.014v-0.007l1.753-0.708 1.76-0.704 0.014 0.032c0.119 0.292 0.221 0.514 0.332 0.732l-0.026-0.056c0.224 0.484 0.572 1.18 1.052 2.027 0.96 1.689 2.418 3.94 4.441 6.183z"></path>
</symbol>
<symbol id="icon-upload" viewBox="0 0 32 32">
<path d="M15.732 0l8.74 8.066-1.646 1.784-5.848-5.4v20.274h-2.426v-20.114l-5.206 5.206-1.714-1.716 8.1-8.1zM2.426 29.574v-14.552h-2.426v16.978h31.532v-16.98h-2.426v14.554h-26.68z"></path>
</symbol>
</defs>
</svg>
