<!-- Generated by IcoMoon.io -->
<svg version="1.1" xmlns="http://www.w3.org/2000/svg" width="1024" height="1024" viewBox="0 0 1024 1024">
<g id="icomoon-ignore">
</g>
<path d="M334.507 531.541c0-108.796 88.196-196.992 196.992-196.992 0.015 0 0.030 0 0.045 0h295.464c108.796 0 196.992 88.196 196.992 196.992s-88.196 196.992-196.992 196.992h-295.467c-108.796 0-196.992-88.196-196.992-196.992v0z"></path>
<path d="M531.541 1024c-108.796 0-196.992-88.196-196.992-196.992v0-295.467c0-108.796 88.196-196.992 196.992-196.992s196.992 88.196 196.992 196.992v295.467c0 108.796-88.196 196.992-196.992 196.992v0zM492.459 123.136c0.014 0.682 0.021 1.486 0.021 2.292 0 68.006-55.13 123.136-123.136 123.136s-123.136-55.13-123.136-123.136c0-0.806 0.008-1.61 0.023-2.412l-0.002 0.12c1.287-67.013 55.914-120.844 123.115-120.844s121.827 53.831 123.113 120.724l0.002 0.12zM246.229 714.069c0.014 0.682 0.021 1.486 0.021 2.292 0 68.006-55.13 123.136-123.136 123.136s-123.136-55.13-123.136-123.136c0-0.806 0.008-1.61 0.023-2.412l-0.002 0.12c1.287-67.013 55.914-120.844 123.115-120.844s121.827 53.831 123.113 120.724l0.002 0.12zM837.205 123.136c0.014 0.682 0.021 1.486 0.021 2.292 0 68.006-55.13 123.136-123.136 123.136s-123.136-55.13-123.136-123.136c0-0.806 0.008-1.61 0.023-2.412l-0.002 0.12c1.287-67.013 55.914-120.844 123.115-120.844s121.827 53.831 123.113 120.724l0.002 0.12zM246.229 369.365c0.014 0.682 0.021 1.486 0.021 2.292 0 68.006-55.13 123.136-123.136 123.136s-123.136-55.13-123.136-123.136c0-0.806 0.008-1.61 0.023-2.412l-0.002 0.12c1.287-67.013 55.914-120.844 123.115-120.844s121.827 53.831 123.113 120.724l0.002 0.12z"></path>
</svg>
