<!-- Generated by IcoMoon.io -->
<svg version="1.1" xmlns="http://www.w3.org/2000/svg" width="1024" height="1024" viewBox="0 0 1024 1024">
<g id="icomoon-ignore">
</g>
<path d="M716.8 204.8c-56.556 0-102.4 45.844-102.4 102.4s45.844 102.4 102.4 102.4 102.4-45.844 102.4-102.4-45.844-102.4-102.4-102.4z"></path>
<path d="M0 102.4v819.2c0 56.556 45.844 102.4 102.4 102.4h819.198c0.011 0 0.023 0 0.034 0 38.8 0 72.558-21.583 90.192-53.934l-0.266 0.53c7.932-14.481 12.441-31.102 12.441-48.777 0-0.077 0-0.153 0-0.218v-819.2c0-56.556-45.844-102.4-102.4-102.4h-819.2c-56.556 0-102.4 45.844-102.4 102.4zM331.039 214.508l-23.839-23.849-238.93 238.94v-327.199c0-18.849 15.28-34.13 34.13-34.13v0h819.2c18.849 0 34.13 15.28 34.13 34.13v0 580.27h-156.518l-468.173-468.173z"></path>
</svg>
