<!-- Generated by IcoMoon.io -->
<svg version="1.1" xmlns="http://www.w3.org/2000/svg" width="922" height="1024" viewBox="0 0 922 1024">
<g id="icomoon-ignore">
</g>
<path d="M434.278 128l-79.258-79.206 48.742-48.794 162.406 162.304-162.406 162.253-48.742-48.794 78.746-78.746c-203.090 8.033-364.699 174.567-364.8 378.87v0.010c0.117 209.416 169.909 379.136 379.341 379.136 0.018 0 0.036 0 0.054 0h-0.003c0.015 0 0.033 0 0.051 0 209.432 0 379.224-169.72 379.341-379.125v-34.52h69.018v34.509c0 247.45-200.806 448.102-448.41 448.102-247.552 0-448.358-200.653-448.358-448.102 0-242.739 193.229-440.474 434.278-447.898z"></path>
</svg>
