<!-- Generated by IcoMoon.io -->
<svg version="1.1" xmlns="http://www.w3.org/2000/svg" width="1024" height="1024" viewBox="0 0 1024 1024">
<g id="icomoon-ignore">
</g>
<path d="M991.283 932.71l-243.712-253.44c60.338-71.22 97.024-164.146 97.024-265.641 0-0.067 0-0.133 0-0.2v0.010c0-227.942-185.498-413.44-413.491-413.44-227.942 0-413.389 185.498-413.389 413.44 0 227.994 185.446 413.44 413.44 413.44 0.308 0.001 0.673 0.001 1.039 0.001 88.365 0 170.187-28.017 237.066-75.652l-1.253 0.848 245.555 255.386c10.24 10.65 24.064 16.538 38.912 16.538 29.777-0.036 53.902-24.183 53.902-53.965 0-14.492-5.712-27.649-15.008-37.344l0.018 0.019zM431.155 107.878c168.675 0.204 305.358 136.887 305.562 305.542v0.020c-0.175 168.697-136.869 305.409-305.542 305.613h-0.020c-168.715-0.175-305.438-136.898-305.613-305.596v-0.017c0.204-168.693 136.916-305.387 305.596-305.562h0.017z"></path>
</svg>
